<?xml version="1.0" encoding="UTF-8"?>
<svg id="Layer_2" data-name="Layer 2" xmlns="http://www.w3.org/2000/svg" viewBox="0 0 1056.55 805.34">
  <g id="_0" data-name="0">
    <g id="LWPOLYLINE">
      <polygon points="216.54 21.44 216.54 0 0 0 0 805.34 461.81 805.34 461.81 0 437.9 0 437.9 784.41 27.55 784.41 27.55 21.44 216.54 21.44"/>
    </g>
    <g id="LWPOLYLINE-2" data-name="LWPOLYLINE">
      <polygon points="482.27 0 505.04 0 505.04 488.65 585.69 488.65 585.69 507.21 505.04 507.21 505.04 784.41 814.73 784.41 814.73 0 835.85 0 835.85 805.34 482.27 805.34 482.27 0"/>
    </g>
    <g id="LWPOLYLINE-3" data-name="LWPOLYLINE">
      <polyline points="863.56 0 863.56 805.34 1056.55 805.34 1056.55 0 1034.57 0 1034.57 783.52 885.47 783.52 885.47 668.82 930.61 668.82 930.61 650.48 885.47 650.48 885.47 0 863.56 0"/>
    </g>
  </g>
</svg>