<?xml version="1.0" encoding="UTF-8"?>
<svg id="Layer_1" data-name="Layer 1" xmlns="http://www.w3.org/2000/svg" viewBox="0 0 330.52 251.28">
  <defs>
    <style>
      .cls-1 {
        fill: #231f20;
        fill-rule: evenodd;
      }
    </style>
  </defs>
  <path class="cls-1" d="m287.43,30.15c5.23-1.8,33.46-18.09,37.55-19.31.3,6.96.54,5.22-3.82,8.26-4.84,3.38-3.2,10.71-3.2,21.1l-.03,211.08c1.71-.43,6.1-3.86,7.65-4.93,3.66-2.53,4.93-2.41,4.94-7.81l-.13-237.96-35.36,18.16c-7.93,4.12-7.47,1.56-7.6,11.41h0Zm-92.53,35.19l-.23,33.8c0,13.62,6.3,23.47,13.56,29.03,10.94,8.39,27.88,7.17,43.18,7.14,4.86,0,27.28.7,30.01-.57,1.8-2.87,1.26-8.08.85-11.76-9.64-.14-19.37-.02-29.02-.02-17.25,0-36.69,3.26-44.04-13.59-3.51-8.06-2.35-31.5-1.99-43.23l24.81-12.83c.64,6.22.43,5.47-3.61,8.07-3.86,2.48-3.23,5.55-3.23,11.34l-.06,46.55c2.66-.99,9.54-6.89,10.87-9.16,2.36-4.01,1.32-26.39,1.32-33.71l-.04-33.15-42.37,22.07h0ZM0,135.14c.5-1.52,4.36-6.55,5.24-7.73,3.4-4.53,2.19-4.56,9.17-4.49,8.78.09,17.62.01,26.4,0,51.72-.06,109.56,1.29,159.8,0-.81,3.24-3.04,6.44-4.95,8.89-2.52,3.25-4.48,3.46-9.94,3.5l-133.24-.02c-8.43,0-47.6.47-52.48-.16h0ZM287.69,36.52c2.28-1.66,9.8-5.86,12.29-6.36l.03,25.39c.04,20.85.74,60.52-.24,79.72l-12.25.04.16-98.79h0ZM97.93,201.02l-20.47.06c.2-5.6,6.2-11.99,6.97-17.7l-6.25.02-18.36,38.3,6.77.3,7.16-14.76,27.22-.07,6.88,14.65,13.43.17-30.74-67.04c-1.68,2.54-3.68,8.11-5.05,10.99-2.19,4.61-.95,3.92,2.44,11.9,2.09,4.92,9.48,19.2,10,23.16h0Zm139.38,20.93l-.06-6.03-30.11.11-.21-31.75h30.16s.26-6.09.26-6.09h-42.12c-.55,46.85-3.28,43.87,20.58,43.82,7.01-.01,14.58.28,21.52-.06h0Zm-96.45-3.12c4.4,4.42,9.81,3.15,17.84,3.18,7.21.03,14.66.16,21.84-.05l.12-5.7-29.04-.18c-1.65-4.17-.51-48.4-.89-57.51l-11-.02c-.4,11.45-.83,50.92,1.14,60.28h0Zm116.65-22.68c0-13.5-.99-17.35,12.93-17.31,9.55.03,20.1-.49,29.57,0l-.33,6.05h-30.1s-.04,36.96-.04,36.96h-12.02s-.02-25.71-.02-25.71h0Zm-39.87-159.88l13.17-13.6c5.46-5.63,6.41-3.82-4.28-14.08-2.15-2.06-7.05-7.53-9.51-8.59-.71.46-17.67,15.71-16.99,18.46.33,1.32,7.09,7.7,8.57,9.29,1.33,1.43,6.63,7.93,9.04,8.52h0Zm39.93,128.3l.23-6.24,42.07-.04-.18,6.4-42.13-.12h0Zm-62.42-.03l41.94.14.16-6.39-42.01.03-.09,6.21h0Zm-54.29,54.28c-3.49-4.17-1.97-23.51-1.97-30.05,0-8.96-.77-22.14.23-30.6,2.72-.72,9.61-.79,12.22.04,1.68,6.24-.88,50.99.83,57.25l28.64.12c.69,1.52.66,1.35.67,3.3.02,3.59-.45,2.79-.94,3.09l.12-5.7-29.04-.18c-1.65-4.17-.51-48.4-.89-57.51l-11-.02c-.4,11.45-.83,50.92,1.14,60.28Z"/>
</svg>